<svg id="_ÎÓÈ_2" data-name="—ÎÓÈ_2" xmlns="http://www.w3.org/2000/svg" xmlns:xlink="http://www.w3.org/1999/xlink" viewBox="0 0 1000 869.72"><defs><style>.cls-1{fill:url(#linear-gradient);}.cls-2{fill:url(#linear-gradient-2);}.cls-3{fill:url(#linear-gradient-3);}.cls-4{fill:url(#linear-gradient-4);}.cls-5{fill:url(#linear-gradient-5);}.cls-6{fill:url(#linear-gradient-6);}.cls-7{fill:url(#linear-gradient-7);}.cls-8{fill:url(#linear-gradient-8);}.cls-9{fill:url(#linear-gradient-9);}.cls-10{fill:url(#linear-gradient-10);}.cls-11{fill:url(#linear-gradient-11);}.cls-12{fill:url(#linear-gradient-12);}.cls-13{fill:url(#linear-gradient-13);}.cls-14{fill:url(#linear-gradient-14);}.cls-15{fill:url(#linear-gradient-15);}.cls-16{fill:url(#linear-gradient-16);}.cls-17{fill:url(#linear-gradient-17);}.cls-18{fill:url(#linear-gradient-18);}.cls-19{fill:url(#linear-gradient-19);}.cls-20{fill:url(#linear-gradient-20);}.cls-21{fill:url(#linear-gradient-21);}.cls-22{fill:url(#linear-gradient-22);}.cls-23{fill:#bb4188;}.cls-24{fill:#e5afc5;}.cls-25{fill:#fff;}.cls-26{fill:#b1aabc;}.cls-27{fill:#d7d5e0;}.cls-28{fill:#991a66;}.cls-29{fill:#d2ced8;}.cls-30{fill:#e8e7ed;}.cls-31{fill:#eaeaea;}.cls-32{fill:#83818a;}.cls-33{fill:#ad7799;}.cls-34{fill:url(#linear-gradient-23);}.cls-35{fill:url(#linear-gradient-24);}.cls-36{fill:url(#linear-gradient-25);}.cls-37{fill:url(#linear-gradient-26);}.cls-38{fill:url(#linear-gradient-27);}.cls-39{opacity:0.8;fill:url(#linear-gradient-28);}.cls-40{fill:url(#linear-gradient-29);}.cls-41{fill:url(#linear-gradient-30);}.cls-42{fill:url(#linear-gradient-31);}</style><linearGradient id="linear-gradient" x1="503.66" y1="361.57" x2="495.72" y2="1462.65" gradientUnits="userSpaceOnUse"><stop offset="0" stop-color="#ff3e80"/><stop offset="1" stop-color="#4b0674"/></linearGradient><linearGradient id="linear-gradient-2" x1="512.55" y1="652.11" x2="800.35" y2="330.61" gradientUnits="userSpaceOnUse"><stop offset="0" stop-color="#c8226f"/><stop offset="1" stop-color="#a71d6a"/></linearGradient><linearGradient id="linear-gradient-3" x1="443.14" y1="521.06" x2="534.94" y2="418.52" gradientUnits="userSpaceOnUse"><stop offset="0" stop-color="#c3226f"/><stop offset="1" stop-color="#901d5c"/></linearGradient><linearGradient id="linear-gradient-4" x1="599.19" y1="380.91" x2="541.06" y2="479.55" xlink:href="#linear-gradient-3"/><linearGradient id="linear-gradient-5" x1="595.57" y1="542.88" x2="776.65" y2="340.59" xlink:href="#linear-gradient-3"/><linearGradient id="linear-gradient-6" x1="791.9" y1="466.47" x2="876.12" y2="441.03" xlink:href="#linear-gradient-3"/><linearGradient id="linear-gradient-7" x1="-608.34" y1="-471.02" x2="-498.56" y2="-593.65" gradientTransform="translate(1003.76 1206.68)" gradientUnits="userSpaceOnUse"><stop offset="0" stop-color="#be2176"/><stop offset="1" stop-color="#a91d6a"/></linearGradient><linearGradient id="linear-gradient-8" x1="-608.59" y1="-471.24" x2="-498.81" y2="-593.87" gradientTransform="translate(1187.75 899.95) rotate(-26.92)" gradientUnits="userSpaceOnUse"><stop offset="0" stop-color="#c3226f"/><stop offset="1" stop-color="#7e1d54"/></linearGradient><linearGradient id="linear-gradient-9" x1="756.33" y1="976.42" x2="842.34" y2="653.38" gradientUnits="userSpaceOnUse"><stop offset="0" stop-color="#a4216a"/><stop offset="1" stop-color="#a91d6a"/></linearGradient><linearGradient id="linear-gradient-10" x1="744.65" y1="952.3" x2="958.42" y2="458.89" gradientUnits="userSpaceOnUse"><stop offset="0" stop-color="#a6216a"/><stop offset="1" stop-color="#7e1d54"/></linearGradient><linearGradient id="linear-gradient-11" x1="34.63" y1="927.49" x2="276.58" y2="657.2" gradientUnits="userSpaceOnUse"><stop offset="0" stop-color="#b92068"/><stop offset="1" stop-color="#971d6a"/></linearGradient><linearGradient id="linear-gradient-12" x1="-0.1" y1="896.39" x2="241.85" y2="626.11" gradientUnits="userSpaceOnUse"><stop offset="0" stop-color="#b7226f"/><stop offset="1" stop-color="#741d54"/></linearGradient><linearGradient id="linear-gradient-13" x1="924.35" y1="640" x2="1005.35" y2="549.51" gradientTransform="matrix(1, 0, 0, 1, 0, 0)" xlink:href="#linear-gradient-7"/><linearGradient id="linear-gradient-14" x1="688.95" y1="418.17" x2="1378.56" y2="336.27" xlink:href="#linear-gradient-3"/><linearGradient id="linear-gradient-15" x1="829.6" y1="439.56" x2="833.67" y2="437.68" xlink:href="#linear-gradient-3"/><linearGradient id="linear-gradient-16" x1="818.37" y1="449.66" x2="844.35" y2="461.22" xlink:href="#linear-gradient-3"/><linearGradient id="linear-gradient-17" x1="728.31" y1="429.27" x2="742.84" y2="426.14" xlink:href="#linear-gradient-3"/><linearGradient id="linear-gradient-18" x1="727.81" y1="384.13" x2="762.99" y2="466.29" xlink:href="#linear-gradient-3"/><linearGradient id="linear-gradient-19" x1="626.85" y1="435.75" x2="722.63" y2="493.55" xlink:href="#linear-gradient-3"/><linearGradient id="linear-gradient-20" x1="481.08" y1="446.78" x2="595.69" y2="516.14" xlink:href="#linear-gradient-3"/><linearGradient id="linear-gradient-21" x1="509.42" y1="411.19" x2="537.83" y2="448.18" xlink:href="#linear-gradient-3"/><linearGradient id="linear-gradient-22" x1="507.37" y1="406.04" x2="638.81" y2="512.06" xlink:href="#linear-gradient-3"/><linearGradient id="linear-gradient-23" x1="480.18" y1="459.99" x2="646.71" y2="380.42" xlink:href="#linear-gradient-3"/><linearGradient id="linear-gradient-24" x1="612.13" y1="366.68" x2="495.87" y2="410.28" gradientUnits="userSpaceOnUse"><stop offset="0.01" stop-color="#ff96ac"/><stop offset="1" stop-color="#fa4188"/></linearGradient><linearGradient id="linear-gradient-25" x1="960.42" y1="353.42" x2="799.58" y2="382.49" xlink:href="#linear-gradient-24"/><linearGradient id="linear-gradient-26" x1="770.98" y1="228.43" x2="500.41" y2="230.6" gradientUnits="userSpaceOnUse"><stop offset="0" stop-color="#ffe9f6"/><stop offset="1" stop-color="#ebebf6"/></linearGradient><linearGradient id="linear-gradient-27" x1="918.58" y1="359.94" x2="565.84" y2="134.03" gradientUnits="userSpaceOnUse"><stop offset="0" stop-color="#ff99ac"/><stop offset="1" stop-color="#ff4188"/></linearGradient><linearGradient id="linear-gradient-28" x1="412.48" y1="315.4" x2="1339.37" y2="187.45" gradientUnits="userSpaceOnUse"><stop offset="0" stop-color="#ebdaf6"/><stop offset="0.5" stop-color="#f9d7ef"/><stop offset="1" stop-color="#f9caef"/></linearGradient><linearGradient id="linear-gradient-29" x1="650.68" y1="373.61" x2="655.76" y2="461.94" gradientUnits="userSpaceOnUse"><stop offset="0" stop-color="#c8226f"/><stop offset="1" stop-color="#ff4188"/></linearGradient><linearGradient id="linear-gradient-30" x1="653.22" y1="403.06" x2="657.94" y2="485.19" xlink:href="#linear-gradient-29"/><linearGradient id="linear-gradient-31" x1="710.14" y1="380.26" x2="648.04" y2="394.79" xlink:href="#linear-gradient-24"/></defs><title>404_element_new-20_SVG</title><path class="cls-1" d="M863.59,373.47c.8,15.33-2.49,34.14-12.65,57-1.28-.54-2.61-1.07-4-1.59,1.36.53,2.68,1.06,4,1.6q-2.49,5.61-5.55,11.55a299.87,299.87,0,0,1-18.55,31,229.07,229.07,0,0,0,9.2-33.47c.21-1.07.41-2.12.59-3.17q1-5.4,1.55-10.55c1.1.35,2.17.7,3.23,1.06-1.06-.36-2.13-.72-3.23-1.07.25-2.16.45-4.29.62-6.4a144.22,144.22,0,0,0-4.32-50.12q-33.88-4.19-68.67-5.49-7.69-.3-15.43-.43-13.54-.24-27.2,0-24.72.38-49.74,2.28-24.6,1.86-49.42,5.24-18.63,2.53-37.36,5.94-18.21,3.31-36,7.38c-2.75.62-5.48,1.25-8.21,1.91-1.78.42-3.56.84-5.33,1.29q-36.75,9-71.79,21C232.74,488.16,59.91,664.13,0,869.72H1000V408.52A764.73,764.73,0,0,0,863.59,373.47ZM765,429c-5,5.91-10.22,11.59-15.44,17l-12.72,1c3.41-6.07,6.7-12.45,9.77-19.12l.09-.2c.57-1.22,1.13-2.46,1.67-3.7,1.7-.71,3.26-1.44,4.65-2.19a37.64,37.64,0,0,0,10.17-7.65,101.48,101.48,0,0,1,8.93,6.25Q768.58,424.76,765,429Zm-92.74,51.34.45-27.61h.08l14.84-1.06L676.34,477a23.16,23.16,0,0,1-4.56,6.61A14,14,0,0,0,672.21,480.31Zm-154.39-18.1c.57-1.16,1.17-2.31,1.8-3.46h0c1.41-2.63,3-5.19,4.64-7.75A99,99,0,0,1,537,435.63h0c2.18-2.18,4.34-4.13,6.42-5.89l.34-.09A9.75,9.75,0,0,0,546,433a22.34,22.34,0,0,0,8.44,5.19,53.67,53.67,0,0,0,8.06,2.08c.18.28.36.57.55.85l.43.65c.94,1.43,1.91,2.85,2.87,4.26l.42.6q-7.53,1.95-15,4.15c-18.31,15.26-32.51,32.52-42.15,46a15,15,0,0,1-3.91,3.77,3.4,3.4,0,0,0,.09-.46,134.78,134.78,0,0,1,12-37.84Z"/><path class="cls-2" d="M882.76,460.85a20.1,20.1,0,0,0-.61-3.52c-.12-.47-.27-.95-.43-1.42l-.09-.25c0-.15-.1-.3-.16-.44-.12-.33-.25-.66-.4-1s-.32-.72-.5-1.07c-.35-.72-.75-1.44-1.18-2.14-.22-.34-.44-.68-.67-1l-.24-.34c-.26-.37-.53-.74-.82-1.11a7,7,0,0,0-.48-.6q-.37-.46-.78-.93-.67-.78-1.41-1.53a47.66,47.66,0,0,0-4.72-4.17c-.44-.34-.88-.67-1.34-1s-.93-.67-1.41-1c-.64-.44-1.29-.87-2-1.3l-1-.64c-.7-.43-1.41-.85-2.14-1.27s-1.47-.83-2.24-1.24l-1.5-.78q-1.51-.78-3.12-1.53l-1.63-.75-.34-.15-1.89-.83-.27-.11-.46-.2c-1.28-.54-2.61-1.07-4-1.59,1.36.53,2.68,1.06,4,1.6q-2.49,5.61-5.55,11.55a299.87,299.87,0,0,1-18.55,31,229.07,229.07,0,0,0,9.2-33.47c.21-1.07.41-2.12.59-3.17q1-5.4,1.55-10.55c1.1.35,2.17.7,3.23,1.06-1.06-.36-2.13-.72-3.23-1.07l-1.83-.58-1.87-.57-1.33-.39-1.34-.39-1.7-.48c-1.14-.32-2.3-.63-3.47-.93l-1.77-.45-2.88-.71-2.93-.69q-3.33-.76-6.81-1.47c-1.54-.32-3.11-.62-4.69-.92l-2.39-.44c-1.6-.29-3.23-.57-4.87-.84l-.41-.07q-2.82-.47-5.7-.89l-1.26-.19c-2-.29-4.07-.58-6.14-.85l-1.85-.23h0l-1.67-.21-3.44-.41-.23,0-2.38-.26c-.36,0-.73-.09-1.1-.12-1.21-.13-2.42-.26-3.64-.37l-3.68-.35-3.73-.32-.83-.07-2.86-.22-1.28-.1-2.74-.19-3.33-.22-.71,0h-.07l-3.49-.2-3.93-.2c-6.44-.3-13-.5-19.76-.59l-3.15,0q-9.9-.07-20.15.15c-3.84.08-7.72.2-11.62.35l-4.42.19q-6.63.3-13.39.74-4.65.3-9.36.66-6.83.53-13.52,1.17-4.69.45-9.33,1c-3.08.34-6.15.69-9.19,1.07l-.37,0-4.83.61q-6.47.86-12.78,1.8c-1.68.25-3.36.51-5,.78s-3.32.53-5,.81-3.29.55-4.92.84q-3.67.64-7.28,1.32l-4.79.92c-10.41,2-20.41,4.3-29.9,6.73l-.78.2Q551,431.53,546,433a22.34,22.34,0,0,0,8.44,5.19,53.67,53.67,0,0,0,8.06,2.08c.18.28.36.57.55.85l.43.65c.94,1.43,1.91,2.85,2.87,4.26l.42.6q-7.53,1.95-15,4.15c-18.31,15.26-32.51,32.52-42.15,46a15,15,0,0,1-3.91,3.77,3.4,3.4,0,0,0,.09-.46,134.78,134.78,0,0,1,12-37.84h0c.57-1.16,1.17-2.31,1.8-3.46h0c1.41-2.63,3-5.19,4.64-7.75A99,99,0,0,1,537,435.63,313.5,313.5,0,0,0,505,447.25c-12.32,5.32-22.69,11-30.73,16.92-13,9.55-19.91,19.67-19.13,29.74,0,.51.1,1,.18,1.53s.15.82.24,1.22c7.44,34,103.35,54.1,218.37,45.21C792,532.74,885.51,496.47,882.76,460.85ZM676.34,477a23.16,23.16,0,0,1-4.56,6.61,14,14,0,0,0,.43-3.32l.45-27.61h.08l14.84-1.06Zm73.17-31-12.72,1c3.41-6.07,6.7-12.45,9.77-19.12l.09-.2c.57-1.22,1.13-2.46,1.67-3.7,1.7-.71,3.26-1.44,4.65-2.19a37.64,37.64,0,0,0,10.17-7.65,101.48,101.48,0,0,1,8.93,6.25q-3.5,4.37-7.12,8.58C759.91,434.88,754.73,440.56,749.51,446Z"/><path class="cls-3" d="M505,447.25A313.5,313.5,0,0,1,537,435.63,99,99,0,0,0,524.29,451c-1.68,2.56-3.23,5.12-4.64,7.75h0c-.63,1.15-1.23,2.3-1.8,3.46h0q-9.85,3.8-19.39,8.14-2.79,1.26-5.55,2.57a108.48,108.48,0,0,0-12.5,7,135.91,135.91,0,0,0-23.76,20,21.24,21.24,0,0,1-1-3.26c-.09-.4-.17-.81-.24-1.22s-.14-1-.18-1.53c-.78-10.07,6.14-20.19,19.13-29.74C482.33,458.26,492.7,452.57,505,447.25Z"/><path class="cls-4" d="M566.76,446.58q-7.53,1.95-15,4.15s0,0,.05-.05c3.95-3.28,7.86-6.26,11.65-9,.94,1.43,1.91,2.85,2.87,4.26Z"/><path class="cls-5" d="M838.18,425.84q-.6,5.16-1.55,10.55c-.18,1.05-.38,2.1-.59,3.17a340.06,340.06,0,0,0-34.12-6.39c-6.17-.87-12.31-1.62-18.36-2.31-3-.34-5.95-.66-8.89-1s-6.33-.64-9.72-.91q3.62-4.22,7.12-8.58a101.48,101.48,0,0,0-8.93-6.25A37.64,37.64,0,0,1,753,421.79c-1.39.75-3,1.48-4.65,2.19-.54,1.24-1.1,2.48-1.67,3.7l-.09.2q-4.27-.18-8.76-.29c-14.49-.35-30.53-.18-47.57.69q-7.74.39-15.74,1h-.21l-1.25.1q-8.09.61-16.38,1.45h-.07q-10.92,1.1-22.13,2.61c-14.09,1.9-28.42,4.31-42.77,7.32q-3.73.76-7.47,1.61-8.75,2-17.45,4.21l-.42-.6c-1-1.41-1.93-2.83-2.87-4.26l-.43-.65c-.19-.28-.37-.57-.55-.85a53.67,53.67,0,0,1-8.06-2.08A22.34,22.34,0,0,1,546,433q5-1.43,10.29-2.79l.78-.2c9.49-2.43,19.49-4.69,29.9-6.73l4.79-.92q3.6-.68,7.28-1.32,2.44-.44,4.92-.84c1.65-.28,3.31-.55,5-.81s3.35-.53,5-.78q6.31-1,12.78-1.8l4.83-.61h0l.37,0c3-.38,6.11-.73,9.19-1.07s6.2-.66,9.33-1q6.69-.66,13.52-1.18,4.71-.36,9.36-.66,6.75-.44,13.39-.73l4.42-.19c3.9-.15,7.78-.27,11.62-.35q10.25-.24,20.15-.15l3.15,0c6.72.09,13.32.29,19.76.59l3.93.2,3.49.2h.07l.71,0,3.33.22,2.74.19,1.28.1,2.86.22.83.07,3.73.32,3.68.35c1.22.11,2.43.24,3.64.37.37,0,.74.07,1.1.12l2.38.26.23,0,3.44.41,1.67.21h0l1.85.23c2.07.27,4.12.56,6.14.85l1.26.19q2.88.42,5.7.89l.41.07c1.64.27,3.27.55,4.87.84l2.39.44,4.69.92q3.48.7,6.81,1.47l2.93.69,2.88.71,1.77.45,3.47.93,1.7.48,1.34.39,1.33.39,1.87.57Z"/><path class="cls-6" d="M882.15,457.33a166.38,166.38,0,0,0-36.76-15.26q3.06-5.94,5.55-11.55l.46.19.27.11,1.89.83.34.15,1.63.75q1.61.76,3.12,1.53l1.5.78c.77.41,1.51.82,2.24,1.24a68.57,68.57,0,0,1,7.88,5.21,47.66,47.66,0,0,1,4.72,4.17q.74.75,1.41,1.53.4.47.78.93a7,7,0,0,1,.48.6c.29.37.56.74.82,1.11l.24.34c.23.34.45.68.67,1,.43.7.83,1.42,1.18,2.14.18.35.35.71.5,1.07s.28.67.4,1c.06.14.11.29.16.44l.09.25C881.88,456.38,882,456.86,882.15,457.33Z"/><ellipse class="cls-7" cx="455.1" cy="669.01" rx="78.46" ry="43.38" transform="translate(-253.61 278.61) rotate(-26.93)"/><path class="cls-8" d="M473.93,629.76c18.62-2.7,41.29-.54,53.72,17.67a26.29,26.29,0,0,0-2.6-13.95c-10.84-21.36-51-22.77-89.59-3.15s-61.16,52.85-50.31,74.21a26.56,26.56,0,0,0,1.8,2.87C394,664.63,429.85,636.15,473.93,629.76Z"/><path class="cls-9" d="M1000,780.76v89H576.07c-4.53-89.44,82.75-171.24,199.79-185C875.28,673.05,965.19,714.12,1000,780.76Z"/><path class="cls-10" d="M775.86,684.71c-117,13.77-204.32,95.57-199.79,185h7.68c4.79-19,12.33-37.13,24.26-53.09,23.15-31,48.58-59.54,84.28-76.83,40-19.37,68.62-30.52,113.37-30.95C956.81,707.41,993,798,994.52,869.72H1000v-89C965.19,714.12,875.28,673.05,775.86,684.71Z"/><path class="cls-11" d="M226.65,827.83a250,250,0,0,1-35,41.89H62.41C55.15,836.25,67.59,787.41,98,741.89c43.62-65.34,107.84-99.12,143.34-75.36S270.31,762.44,226.65,827.83Z"/><path class="cls-12" d="M237.19,664.11C201,645.39,140,679,98,741.89c-30.4,45.52-42.84,94.36-35.58,127.83h5.06C73.63,749.16,166.31,660.44,237.19,664.11Z"/><path class="cls-13" d="M1000,558.21v99.33a184.14,184.14,0,0,1-31.7-13.3c-46.25-24.49-74.19-62.4-62.4-84.69C916.74,539.08,957.5,539,1000,558.21Z"/><path class="cls-14" d="M850.94,430.51c-1.28-.54-2.61-1.07-4-1.59l-2.45-.92c-1-.38-2.07-.74-3.12-1.1s-2.13-.72-3.23-1.07c.25-2.16.45-4.29.62-6.4a144.22,144.22,0,0,0-4.32-50.12q14.65,1.81,29.11,4.16C864.39,388.8,861.1,407.61,850.94,430.51Z"/><path class="cls-15" d="M850.94,430.52q-2.49,5.61-5.55,11.55c-3.09-.9-6.21-1.73-9.35-2.51.21-1.07.41-2.12.59-3.17q1-5.4,1.55-10.55c1.1.35,2.17.7,3.23,1.06s2.09.73,3.12,1.1l2.45.92C848.34,429.45,849.66,430,850.94,430.52Z"/><path class="cls-16" d="M845.39,442.07a299.87,299.87,0,0,1-18.55,31,229.07,229.07,0,0,0,9.2-33.47C839.18,440.34,842.3,441.17,845.39,442.07Z"/><path class="cls-17" d="M772.07,420.39q-3.5,4.37-7.12,8.58c-5.72-.46-11.87-.83-18.39-1.09l.09-.2c.57-1.22,1.13-2.46,1.67-3.7,1.7-.71,3.26-1.44,4.65-2.19a37.64,37.64,0,0,0,10.17-7.65A101.48,101.48,0,0,1,772.07,420.39Z"/><path class="cls-18" d="M765,429c-5,5.91-10.22,11.59-15.44,17l-12.72,1c3.41-6.07,6.7-12.45,9.77-19.12C753.08,428.14,759.23,428.51,765,429Z"/><path class="cls-19" d="M687.58,451.63,676.34,477a23.16,23.16,0,0,1-4.56,6.61,14,14,0,0,0,.43-3.32l.45-27.61h.08Z"/><path class="cls-20" d="M551.77,450.73c-18.31,15.26-32.51,32.52-42.15,46a15,15,0,0,1-3.91,3.77,3.4,3.4,0,0,0,.09-.46,134.78,134.78,0,0,1,12-37.84h0C528.91,457.91,540.27,454.1,551.77,450.73Z"/><path class="cls-21" d="M563.47,441.72c-3.79,2.7-7.7,5.68-11.65,9,0,0,0,0-.05.05-11.5,3.37-22.86,7.18-33.95,11.48.57-1.16,1.17-2.31,1.8-3.46h0c1.41-2.63,3-5.19,4.64-7.75A99,99,0,0,1,537,435.63h0q4.41-1.38,9-2.68a22.34,22.34,0,0,0,8.44,5.19,53.67,53.67,0,0,0,8.06,2.08c.18.28.36.57.55.85Z"/><path class="cls-22" d="M546,433q-4.61,1.31-9,2.68c2.18-2.18,4.34-4.13,6.42-5.89l.34-.09A9.75,9.75,0,0,0,546,433Z"/><path class="cls-23" d="M847,428.92c1.35.52,2.68,1.05,4,1.59h0C849.66,430,848.34,429.45,847,428.92Z"/><path class="cls-24" d="M690.05,175.13a54.07,54.07,0,1,1-57.79-50.07A54.07,54.07,0,0,1,690.05,175.13Z"/><path class="cls-25" d="M662.73,221.68h0c.07,0,.91-.23,2.28-.51s3.26-.62,5.46-.93a69,69,0,0,1,7.09-.61,44.67,44.67,0,0,1,5.87.17,28.78,28.78,0,0,1,4.52.8,19.92,19.92,0,0,1,3.41,1.22,15.56,15.56,0,0,1,2.51,1.44,13.61,13.61,0,0,1,1.78,1.47,13.13,13.13,0,0,1,3.68,6.46c.07.3.12.6.16.9a9.51,9.51,0,0,1-.06,3,10.73,10.73,0,0,1-.68,2.28,13.79,13.79,0,0,1-.89,1.72,17.17,17.17,0,0,1-1.92,2.52c-.59.64-1.19,1.22-1.8,1.77a38.86,38.86,0,0,1-3.21,2.55c-1.57,1.12-3,2-4.17,2.71s-1.86,1-1.93,1.09a6.82,6.82,0,0,1-6.38-12.05h0s.7-.38,1.67-1c.73-.44,1.62-1,2.5-1.61.61-.43,1.22-.89,1.76-1.33a13.78,13.78,0,0,0-1.64-.31c-.73-.1-1.54-.17-2.39-.2a39.66,39.66,0,0,0-4.05.09c-1.37.09-2.74.24-4,.41-1.83.25-3.45.55-4.58.78l-1.31.28-.32.08H666a6.82,6.82,0,1,1-3.29-13.23Z"/><polygon class="cls-25" points="699.33 231.19 699.33 231.19 699.33 231.19 699.33 231.19"/><path class="cls-26" d="M681.76,255.4c4.31-3.6,5.71-8.7,2.3-12.68s-9-3.23-13.31.37-3.58,6.76-.17,10.74S677.46,259,681.76,255.4Z"/><polygon class="cls-25" points="680.78 236.06 675.07 241.1 686.45 250.53 690.6 245.89 680.78 236.06"/><path class="cls-25" d="M683.63,254.68c4.71-3.94,6.23-9.51,2.5-13.86s-9.83-3.54-14.54.4-2.69,6.31,1,10.66S678.92,258.62,683.63,254.68Z"/><path class="cls-27" d="M691.11,243.94l-8.67-9.45a2.22,2.22,0,0,0-3.13-.14h0a2.22,2.22,0,0,0-.14,3.13l8.67,9.46a2.23,2.23,0,0,0,3.13.13h0A2.22,2.22,0,0,0,691.11,243.94Z"/><path class="cls-26" d="M668.26,237.18h0a5.14,5.14,0,0,1-4.07-6l2.31-12.09a5.14,5.14,0,0,1,6-4.07h0a5.14,5.14,0,0,1,4.07,6l-2.31,12.09A5.14,5.14,0,0,1,668.26,237.18Z"/><path class="cls-28" d="M674.65,216l-3.72,21a5.11,5.11,0,0,0,3.33-3.86L676.57,221A5.12,5.12,0,0,0,674.65,216Z"/><path class="cls-29" d="M616.18,236.35h0a5.15,5.15,0,0,0,4.26-5.87l-1.93-12.15a5.14,5.14,0,0,0-5.87-4.26h0a5.14,5.14,0,0,0-4.26,5.86l1.93,12.16A5.14,5.14,0,0,0,616.18,236.35Z"/><path class="cls-28" d="M610.46,215l3.06,21.09a5.14,5.14,0,0,1-3.21-4l-1.93-12.16A5.13,5.13,0,0,1,610.46,215Z"/><path class="cls-26" d="M631.36,259.63l3.7,5.81a4.13,4.13,0,0,0,3.31,2.15l7.58.12a4.32,4.32,0,0,0,3.63-2.44l3.12-5.3Z"/><path class="cls-30" d="M621.36,259.92l41.33.66a6.12,6.12,0,0,0,5.45-3.15,12.71,12.71,0,0,0,1.59-5.94l.52-33.09a4.2,4.2,0,0,0-4.14-4.28l-46.7-.74a4.22,4.22,0,0,0-4.28,4.14l-.52,33.1a12.58,12.58,0,0,0,1.4,6A6.11,6.11,0,0,0,621.36,259.92Z"/><path class="cls-25" d="M659.17,214l-32.82-.52a1.46,1.46,0,0,0-1.48,1.4c-.67,19.13-8.59,23.23-11.44,24.09a1.47,1.47,0,0,0-1,1.37L612.22,251a1.45,1.45,0,0,0,1.43,1.47l57,.91a1.47,1.47,0,0,0,1.48-1.43l.16-10.66a1.45,1.45,0,0,0-1-1.4c-2.83-1-10.61-5.3-10.68-24.44A1.45,1.45,0,0,0,659.17,214Z"/><path class="cls-25" d="M672.79,203.24a40.81,40.81,0,0,0,10.71-26.91c.35-22.22-17.4-38.63-39.62-39S603.39,152.83,603,175.05a40.79,40.79,0,0,0,9.85,27.24Z"/><path class="cls-31" d="M643.41,190.66c-15.11-.24-29-3.36-39.84-8.37a40.91,40.91,0,0,0,9.32,20l59.9,1a41,41,0,0,0,9.88-19.34C671.77,188.36,658.15,190.89,643.41,190.66Z"/><path class="cls-32" d="M678.43,179.37c-.33,20.55-16.14,23-35.58,22.74S607.68,198.8,608,178.25s16.31-34.56,35.76-34.25S678.76,158.82,678.43,179.37Z"/><path class="cls-32" d="M673,173.38c.22-13.37-10-24.86-24.19-29a38.08,38.08,0,0,0-5.05-.41c-19.45-.31-35.44,13.7-35.76,34.25a27,27,0,0,0,1.54,10.12c6.45,4.87,16.38,7,27.54,7.19C656.73,195.88,672.75,190,673,173.38Z"/><path class="cls-25" d="M649.44,150.33a.94.94,0,0,0,.27-1.84,31.42,31.42,0,0,0-7.44-1c-16.84-.26-30.7,12.7-31,31.7v.1a.93.93,0,0,0,1.85.2,38.06,38.06,0,0,1,6.64-15,5,5,0,0,0,.88,3.08c2,2.85,6.8,2.94,10.68.19s5.41-7.28,3.4-10.13a5.75,5.75,0,0,0-5.07-2.18,35.51,35.51,0,0,1,19.14-5.11Z"/><path class="cls-33" d="M671.29,214.2l-57.77-.92a2.47,2.47,0,0,1-2.42-2.5h0a2.47,2.47,0,0,1,2.5-2.42l57.77.92a2.47,2.47,0,0,1,2.42,2.5h0A2.47,2.47,0,0,1,671.29,214.2Z"/><path class="cls-25" d="M672.8,210.56l-61.58-1a3.66,3.66,0,0,1-3.6-3.72h0a3.67,3.67,0,0,1,3.71-3.6l61.59,1a3.67,3.67,0,0,1,3.6,3.71h0A3.66,3.66,0,0,1,672.8,210.56Z"/><path class="cls-25" d="M598.74,224c.37,2.67,1.45,10.18,8.39,10.37s7.66-5.52,6.42-11-1.85-14.08-2-17.67-.62-5.61-.83-7.25a45.94,45.94,0,0,1-.34-6.41c0-5-3.15-9.09-7.15-9.16s-7.3,3.92-7.36,8.91c-.05,4.26.47,9.36.79,14.08S597.64,216,598.74,224Z"/><path class="cls-34" d="M554.58,427l-.1,0h0c-3.63.85-7.22,1.72-10.74,2.63l-.34.09.28-.23,1.16-1c1-.83,2-1.6,3-2.32.32-.25.64-.48,1-.71,1.25-.92,2.44-1.76,3.54-2.51l.05,0h0C553.09,424.31,553.82,425.65,554.58,427Z"/><path class="cls-35" d="M561,417.87a74.88,74.88,0,0,0-8.61,5.09h0l-.05,0c-1.1.75-2.29,1.59-3.54,2.51-.31.23-.63.46-1,.71-1,.72-1.95,1.49-3,2.32l-1.16,1-.28.23c-2.08,1.76-4.24,3.71-6.42,5.89h0A99,99,0,0,0,524.29,451c-1.68,2.56-3.23,5.12-4.64,7.75h0c-.63,1.15-1.23,2.3-1.8,3.46h0a134.78,134.78,0,0,0-12,37.84,3.4,3.4,0,0,1-.09.46l-.06.24v0c-1.71,6.35-11,7.57-14.31,1.53a246.79,246.79,0,0,1-11-22.38q-1.14-2.64-2.17-5.23-2.16-5.34-3.91-10.53c-1.05-3.08-2-6.12-2.84-9.11a154.61,154.61,0,0,1-6.16-46.62c.11-4.09.41-8,.86-11.89h0c7.07-59.58,52.77-90.63,58.57-94.33l.06,0c.35-.24.55-.35.55-.35L547,372.42l.88,2.93,1.14,3.72,1.58,5.13,6.12,19.94,2.59,8.41Z"/><path class="cls-36" d="M838.8,419.43c-.17,2.11-.37,4.24-.62,6.4h0q-.6,5.16-1.55,10.55c-.18,1.05-.38,2.1-.59,3.17a229.07,229.07,0,0,1-9.2,33.47c-.28.79-.56,1.58-.85,2.37-.37,1-.73,2.05-1.13,3.05-2.53,6.68-12.51,6.59-14.67-.18-4.31-13.54-12-31-25.26-45.91-.45-.51-.91-1-1.37-1.5s-1-1.07-1.53-1.58a103.67,103.67,0,0,0-7.69-7.08c-.76-.63-1.52-1.23-2.27-1.81a101.48,101.48,0,0,0-8.93-6.25c-1-.66-2.06-1.27-3-1.85-2.07-1.2-4-2.24-5.79-3.14l-.13-.06h0l-.28-.12h0a75.11,75.11,0,0,0-9.91-4.18l.75-4.82,1.33-8.55,4.37-28,1.39-8.91,10.86-69.61s.73.3,2,.94l0,0c9.45,4.57,48.86,26.05,66.29,72.68q1.93,5.19,3.49,10.8A144.22,144.22,0,0,1,838.8,419.43Z"/><path class="cls-37" d="M767.46,314.72q-1.1-14.66-2.72-28.59c0-.1,0-.2,0-.3q-1.08-9.46-2.38-18.6c-.41-2.87-.83-5.7-1.27-8.52,0-.22-.06-.44-.1-.66-.22-1.4-.44-2.8-.67-4.19s-.49-3-.74-4.44-.46-2.76-.71-4.12q-.41-2.34-.84-4.65c-.26-1.44-.53-2.88-.81-4.31q-2.45-12.9-5.32-25l-1-4c-.21-.88-.43-1.75-.64-2.62q-1.1-4.44-2.25-8.79c-.31-1.2-.64-2.4-1-3.59q-2.87-10.61-6-20.61h0q-.94-3-1.93-6-.57-1.78-1.17-3.54c-.78-2.35-1.58-4.67-2.38-7-.48-1.37-1-2.72-1.45-4.07-.1-.29-.2-.57-.31-.86-.38-1.06-.76-2.11-1.15-3.15q-1.65-4.49-3.35-8.81c-.38-1-.76-1.93-1.15-2.89-.51-1.28-1-2.54-1.53-3.79Q723.53,124,720.35,117c-.53-1.18-1.06-2.35-1.6-3.51s-1.07-2.31-1.6-3.45q-3.23-6.83-6.51-13.21v0h0a0,0,0,0,0,0,0C676.25,29.93,637.14-.93,623.81,0c-20.58,1.5-105.33,103.48-99,302.16,0,.12,0,.24,0,.36q.4,14.37,1.55,29.41a236.35,236.35,0,0,0,8.06,46.67h0c.58,2.14,1.19,4.21,1.83,6.29.26.83.53,1.66.79,2.49s.53,1.6.8,2.39c.12.36.25.71.37,1.07Q541.71,401,546,410.2q2.13,4.69,4.43,9.17l0,.08c.61,1.2,1.24,2.38,1.86,3.56l.15.27c.51.94,1,1.87,1.54,2.8h0l.51.92.17.3.58,1,0,.08c.33.58.66,1.16,1,1.74q3,5.18,6.21,10.06c.18.28.36.57.55.85l.43.65c.94,1.43,1.91,2.85,2.87,4.26l.42.6c3.13,4.49,6.35,8.83,9.61,13l61.69-4.4h0L654.32,454l2.07-.15,16.27-1.18h.08l14.84-1.06,2.7-.19,45.85-3.26a2,2,0,0,1,.21-.37l.45-.81c3.41-6.07,6.7-12.45,9.77-19.12l.09-.2c.57-1.22,1.13-2.46,1.67-3.7q2.43-5.44,4.62-11.17v0s0,0,0,0c.12-.3.24-.61.35-.92.31-.81.61-1.62.91-2.44a.18.18,0,0,0,0-.12s0-.09,0-.13q1.11-3,2.14-6.1a.64.64,0,0,1,.06-.18c.81-2.41,1.59-4.85,2.32-7.33h0a218,218,0,0,0,5.46-22.46c.57-3,1.09-6.12,1.53-9.25.43-2.89.79-5.81,1.1-8.78A223.42,223.42,0,0,0,767.46,314.72ZM616.73,116.87l1.3-.39,1.31-.36,1.34-.34c.72-.18,1.45-.35,2.19-.49s1.47-.29,2.21-.42l.13,0,1.54-.24.26,0,1.17-.15h.12l1.56-.17,1.54-.13,1.3-.08c1.55-.08,3.1-.1,4.63-.07l.84,0q.74,0,1.47.06c.26,0,.52,0,.78,0,.53,0,1.05.07,1.58.12l.73.07.75.08.74.09c.3,0,.61.07.91.12l1.29.19,1.33.23c.79.14,1.59.3,2.37.48.41.09.83.18,1.24.29l.21,0c.45.1.9.22,1.34.34l.22.06,1.19.33,1.58.49q2.16.68,4.26,1.53c.56.22,1.11.45,1.66.69l1,.45,1.45.68c.45.21.9.44,1.35.67s.89.45,1.32.7c.88.46,1.75,1,2.6,1.48.43.24.86.5,1.28.79l1.3.85c1.22.81,2.42,1.66,3.59,2.57A64.83,64.83,0,0,1,701,174.36a62.83,62.83,0,0,1,.12,7.11c0,.46,0,.91-.06,1.34-.09,1.46-.22,2.9-.4,4.3-.09.67-.18,1.34-.27,2-.16,1-.34,1.93-.52,2.87a.22.22,0,0,1,0,.15c-.19.92-.4,1.83-.64,2.75V195c-.16.64-.34,1.28-.52,1.89s-.37,1.31-.61,2-.46,1.46-.73,2.16q-.78,2.25-1.74,4.39c-.49,1.1-1,2.17-1.53,3.21-.36.7-.73,1.37-1.1,2s-.73,1.25-1.09,1.86c-.61,1-1.26,2-1.9,3-.48.7-1,1.4-1.49,2.08-.66.93-1.36,1.83-2.08,2.72l-.45.54h0l-.55.64a3.58,3.58,0,0,1-.46.52c-.46.55-.95,1.1-1.46,1.62a61.63,61.63,0,0,1-5.31,5c-.46.4-.95.79-1.41,1.16s-1,.79-1.46,1.13h0a2.64,2.64,0,0,1-.57.44s0,0,0,0l0,0-.13.11c-.34.24-.67.52-1,.73a.65.65,0,0,1-.24.15.84.84,0,0,1-.19.12,0,0,0,0,1,0,0v0c-.47.32-.94.64-1.42.94l-.63.41a0,0,0,0,1,0,0l-.89.54c-.41.25-.84.49-1.26.72,0,.06,0,0,0,0-.71.43-1.44.85-2.19,1.24l-.09,0c-.17.08-.34.17-.51.24l-.42.21a4.87,4.87,0,0,1-.85.44c-.48.24-1,.47-1.45.68-.8.37-1.61.72-2.42,1.05-.6.25-1.2.49-1.81.72s-1.06.39-1.6.57c-.29.11-.59.21-.89.3l-1.5.48q-.78.24-1.56.45c-1.57.44-3.17.82-4.8,1.13l-1.14.21c-.22.05-.44.08-.67.12-.95.16-1.91.3-2.88.41s-2.12.24-3.19.31l-1,.06-1.95.09q-.93,0-1.86,0l-1.58,0c-.72,0-1.43,0-2.14-.07l-.85-.07-1.29-.11-1-.1c-.58-.06-1.15-.12-1.71-.2-.9-.12-1.8-.26-2.68-.43s-1.46-.28-2.16-.43-1.38-.29-2.07-.46l-.38-.1c-.62-.16-1.23-.32-1.85-.51-.86-.24-1.68-.48-2.51-.76l-1-.33-.36-.13-.11,0-.1,0-.52-.18c-.18-.07-.35-.13-.52-.21s-.06,0-.06,0l-.5-.19c-.59-.21-1.16-.45-1.73-.69a.1.1,0,0,1-.06,0c-.67-.27-1.31-.55-2-.85s-1.19-.55-1.77-.86l-1.74-.91c-.73-.4-1.43-.8-2.13-1.22a61.36,61.36,0,0,1-6.47-4.34c-.7-.51-1.37-1.06-2-1.61-.34-.28-.71-.58-1-.89-.73-.61-1.44-1.25-2.11-1.89-1-1-2-2-3-3.05-.06,0-.09-.09-.12-.12-.94-1-1.89-2.11-2.81-3.23s-1.76-2.26-2.59-3.45c0,0-.06,0-.06-.06-.82-1.19-1.62-2.38-2.38-3.63a24,24,0,0,1-1.31-2.23c-.55-1-1.1-2-1.59-3-.42-.79-.82-1.68-1.16-2.5-.12-.28-.24-.58-.36-.89-.7-1.67-1.34-3.38-1.89-5.12-.34-1-.64-1.95-.89-3-.21-.79-.43-1.62-.61-2.44-.27-1.19-.52-2.41-.73-3.66-.15-.86-.31-1.74-.4-2.62-.15-1.23-.27-2.45-.36-3.7a65.11,65.11,0,0,1,44.23-66.36Z"/><path class="cls-38" d="M700.92,174.35a65,65,0,1,0-60.24,69.51A65,65,0,0,0,700.92,174.35ZM639.37,225.6a46.73,46.73,0,1,1,43.28-49.95A46.73,46.73,0,0,1,639.37,225.6Z"/><path class="cls-39" d="M767.46,314.72q-1.1-14.66-2.72-28.59c0-.1,0-.2,0-.3q-1.08-9.46-2.38-18.6c-.41-2.87-.83-5.7-1.27-8.52,0-.22-.06-.44-.1-.66-.22-1.4-.44-2.8-.67-4.19s-.49-3-.74-4.44-.46-2.76-.71-4.12q-.41-2.34-.84-4.65c-.26-1.44-.53-2.88-.81-4.31q-2.45-12.9-5.32-25c-.05-.25-.11-.49-.17-.74-.26-1.1-.52-2.2-.79-3.29-.21-.88-.43-1.75-.64-2.62q-1.1-4.44-2.25-8.79c-.31-1.2-.64-2.4-1-3.59q-2.87-10.61-6-20.61h0q-.94-3-1.93-6-.57-1.78-1.17-3.54c-.78-2.35-1.58-4.67-2.38-7-.48-1.37-1-2.72-1.45-4.07-.1-.29-.2-.57-.31-.86-.38-1.06-.76-2.11-1.15-3.15q-1.65-4.49-3.35-8.81c-.38-1-.76-1.93-1.15-2.89-.51-1.28-1-2.54-1.53-3.79Q723.53,124,720.35,117c-.53-1.18-1.06-2.35-1.6-3.51s-1.07-2.31-1.6-3.45q-3.23-6.83-6.51-13.21c.51,1.54,11.7,35.35,19,84.57,5.81,39.4,9.1,88.66,2.38,139.14a293.84,293.84,0,0,1-8.79,42.87,207.56,207.56,0,0,1-13.54,35.2q-2.48,4.92-5,9.29c-.62,1.06-1.24,2.1-1.86,3.11a137.18,137.18,0,0,1-11.92,16.6l-.61.72a117.81,117.81,0,0,1-8.63,9.06,98.32,98.32,0,0,1-8.81,7.36c-9.61,7.11-16.4,9.18-16.4,9.18l16.27-1.18h.08l14.84-1.06,2.7-.19,45.85-3.26a2,2,0,0,1,.21-.37l.45-.81c3.41-6.07,6.7-12.45,9.77-19.12l.09-.2c.57-1.22,1.13-2.46,1.67-3.7q2.43-5.44,4.62-11.17v0s0,0,0,0c.12-.3.24-.61.35-.92.31-.81.61-1.62.91-2.44a.18.18,0,0,0,0-.12s0-.09,0-.13q1.11-3,2.14-6.1a.64.64,0,0,1,.06-.18c.81-2.41,1.59-4.85,2.32-7.33h0a218,218,0,0,0,5.46-22.46c.57-3,1.09-6.12,1.53-9.25.43-2.89.79-5.81,1.1-8.78A223.42,223.42,0,0,0,767.46,314.72Z"/><path class="cls-40" d="M774.33,381.7c.2,3.18-3.21,8.33-10,11.54-18.77,8.84-62.41,16.75-112.17,20.2s-91.9,1.43-111.68-4.7c-7.21-2.23-11.33-6.84-11.53-10-.2-3.39,1.2-5.52,9-8.94,1.45,4.14,3,8.32,3.38,9.15,4.62,7.14,52.42,9.7,111.25,5.58s105.74-13,109.33-20.71c.79-3.4,1.41-6.07,2.32-10.77C772.31,375.36,774.13,378.29,774.33,381.7Z"/><path class="cls-41" d="M764.9,410.41a4,4,0,0,1-.67,2.2,9.91,9.91,0,0,1-1.09,1.53A37.64,37.64,0,0,1,753,421.79c-1.39.75-3,1.48-4.65,2.19a99.91,99.91,0,0,1-10.52,3.61c-14.23,4.09-33.88,7.3-56.2,9.75q-4.29.48-8.71.91c-5.88.58-11.92,1.11-18.07,1.6-6.46.51-12.84,1-19.08,1.36-15.86,1-30.79,1.53-43.77,1.36-2.67,0-5.26-.1-7.76-.2A164.3,164.3,0,0,1,565,440.66c-.86-.14-1.69-.28-2.49-.44a53.67,53.67,0,0,1-8.06-2.08A22.34,22.34,0,0,1,546,433a9.75,9.75,0,0,1-2.26-3.3.84.84,0,0,1-.06-.14,4.22,4.22,0,0,1-.25-1.21c-.18-3.39.18-5.51,7-8.93l0,.08c.75,1.33,1.37,2.49,1.91,3.52s1.14,2.19,1.64,3.11h0l.5.93c.25.45.5.89.76,1.32l0,.08a4.62,4.62,0,0,0,1.78,1.54c3.19,1.79,9.82,2.92,19,3.49,4.38.27,9.34.42,14.78.44,12.41.07,27.3-.46,43.46-1.46,6.76-.42,13.75-.92,20.87-1.49l1.43-.11h.07c5.58-.45,11.05-.92,16.38-1.43.42,0,.84-.07,1.25-.12h.21c5.63-.54,11.1-1.1,16.35-1.7,34.44-3.89,59.68-8.94,62.1-14.75v0s0,0,0,0c.09-.31.18-.62.28-.92.28-.9.59-1.8.93-2.75.62-1.72,1.36-3.61,2.27-6a.64.64,0,0,1,.06-.18c0-.07,0-.14.08-.22C763.71,405,764.73,407,764.9,410.41Z"/><path class="cls-42" d="M674,368.39l-.55,34.43-.12,7.15,0,1.69v.57h0l-.3,17.13v.09l-.14,8.79-.1,6.45-.12,7.67v.33l-.45,27.61a14,14,0,0,1-.43,3.32,14.85,14.85,0,0,1-13.27,11.17h-.27a14.73,14.73,0,0,1-15.62-12.29l-4.56-27.32,0-.32,0-.15,0-.16-2.21-13.35-1.29-7.77v0l-.16-1-2.72-16.28h0l-.26-1.56-.12-.74-1.34-8L624,370.88l-.13-.75.67-7.9,4.65-54,0-.6a15.66,15.66,0,0,1,7.13-11.81v0a15.55,15.55,0,0,1,7.35-2.44H644a15.64,15.64,0,0,1,16.41,12.29l11.2,51.68,1.81,8.32Z"/></svg>