<svg xmlns="http://www.w3.org/2000/svg" viewBox="0 0 1439 974"><defs><linearGradient id="zyro-logo-a" x1="100%" x2=".021%" y1="49.996%" y2="49.996%"><stop offset="0%" stop-color="#0E83FF"/><stop offset="100%" stop-color="#74DDFF"/></linearGradient><linearGradient id="zyro-logo-b" x1="99.991%" x2=".012%" y1="49.985%" y2="49.985%"><stop offset="0%" stop-color="#0E83FF"/><stop offset="100%" stop-color="#74DDFF"/></linearGradient><linearGradient id="zyro-logo-c" x1="100.02%" x2="0%" y1="49.998%" y2="49.998%"><stop offset="0%" stop-color="#0E83FF"/><stop offset="100%" stop-color="#74DDFF"/></linearGradient><linearGradient id="zyro-logo-d" x1="99.987%" x2=".007%" y1="49.993%" y2="49.993%"><stop offset="0%" stop-color="#0E83FF"/><stop offset="100%" stop-color="#74DDFF"/></linearGradient><linearGradient id="zyro-logo-e" x1="99.979%" x2="0%" y1="50.01%" y2="50.01%"><stop offset="0%" stop-color="#0E83FF"/><stop offset="100%" stop-color="#74DDFF"/></linearGradient><linearGradient id="zyro-logo-f" x1="100.008%" x2=".029%" y1="49.978%" y2="49.978%"><stop offset="0%" stop-color="#0E83FF"/><stop offset="100%" stop-color="#74DDFF"/></linearGradient><linearGradient id="zyro-logo-g" x1="99.986%" x2=".007%" y1="50.01%" y2="50.01%"><stop offset="0%" stop-color="#0E83FF"/><stop offset="100%" stop-color="#74DDFF"/></linearGradient><linearGradient id="zyro-logo-h" x1="100.004%" x2=".024%" y1="49.99%" y2="49.99%"><stop offset="0%" stop-color="#0E83FF"/><stop offset="100%" stop-color="#74DDFF"/></linearGradient><linearGradient id="zyro-logo-i" x1="99.987%" x2=".007%" y1="49.99%" y2="49.99%"><stop offset="0%" stop-color="#0E83FF"/><stop offset="100%" stop-color="#74DDFF"/></linearGradient><linearGradient id="zyro-logo-j" x1="100.045%" x2="-.016%" y1="50.001%" y2="50.001%"><stop offset="0%" stop-color="#0E83FF"/><stop offset="100%" stop-color="#74DDFF"/></linearGradient><linearGradient id="zyro-logo-k" x1="99.988%" x2=".008%" y1="50.022%" y2="50.022%"><stop offset="0%" stop-color="#0E83FF"/><stop offset="100%" stop-color="#74DDFF"/></linearGradient><linearGradient id="zyro-logo-l" x1="99.996%" x2="-.025%" y1="49.999%" y2="49.999%"><stop offset="0%" stop-color="#0E83FF"/><stop offset="100%" stop-color="#74DDFF"/></linearGradient><linearGradient id="zyro-logo-m" x1="99.996%" x2=".021%" y1="49.986%" y2="49.986%"><stop offset="0%" stop-color="#0E83FF"/><stop offset="100%" stop-color="#74DDFF"/></linearGradient><linearGradient id="zyro-logo-n" x1="100.016%" x2="-.004%" y1="50.001%" y2="50.001%"><stop offset="0%" stop-color="#0E83FF"/><stop offset="100%" stop-color="#74DDFF"/></linearGradient><linearGradient id="zyro-logo-o" x1="99.982%" x2=".002%" y1="49.985%" y2="49.985%"><stop offset="0%" stop-color="#0E83FF"/><stop offset="100%" stop-color="#74DDFF"/></linearGradient><linearGradient id="zyro-logo-p" x1="100.029%" x2=".008%" y1="50.004%" y2="50.004%"><stop offset="0%" stop-color="#0E83FF"/><stop offset="100%" stop-color="#74DDFF"/></linearGradient><linearGradient id="zyro-logo-q" x1="100.012%" x2="-.008%" y1="49.998%" y2="49.998%"><stop offset="0%" stop-color="#0E83FF"/><stop offset="100%" stop-color="#74DDFF"/></linearGradient><linearGradient id="zyro-logo-r" x1="100.002%" x2="-.018%" y1="49.985%" y2="49.985%"><stop offset="0%" stop-color="#0E83FF"/><stop offset="100%" stop-color="#74DDFF"/></linearGradient><linearGradient id="zyro-logo-s" x1="99.991%" x2="-.029%" y1="50.006%" y2="50.006%"><stop offset="0%" stop-color="#0E83FF"/><stop offset="100%" stop-color="#74DDFF"/></linearGradient><linearGradient id="zyro-logo-t" x1="99.995%" x2=".015%" y1="50.006%" y2="50.006%"><stop offset="0%" stop-color="#0E83FF"/><stop offset="100%" stop-color="#74DDFF"/></linearGradient><linearGradient id="zyro-logo-u" x1="100.008%" x2="-.009%" y1="50.006%" y2="50.006%"><stop offset="0%" stop-color="#0E83FF"/><stop offset="100%" stop-color="#74DDFF"/></linearGradient><linearGradient id="zyro-logo-v" x1="100.008%" x2="-.009%" y1="50.014%" y2="50.014%"><stop offset="0%" stop-color="#0E83FF"/><stop offset="100%" stop-color="#74DDFF"/></linearGradient><linearGradient id="zyro-logo-w" x1="100.008%" x2="-.009%" y1="50%" y2="50%"><stop offset="0%" stop-color="#0E83FF"/><stop offset="100%" stop-color="#74DDFF"/></linearGradient><linearGradient id="zyro-logo-x" x1="100.004%" x2="-.017%" y1="49.994%" y2="49.994%"><stop offset="0%" stop-color="#0E83FF"/><stop offset="100%" stop-color="#74DDFF"/></linearGradient><linearGradient id="zyro-logo-y" x1="100.045%" x2="-.016%" y1="50.006%" y2="50.006%"><stop offset="0%" stop-color="#0E83FF"/><stop offset="100%" stop-color="#74DDFF"/></linearGradient><linearGradient id="zyro-logo-z" x1="99.988%" x2=".008%" y1="50.01%" y2="50.01%"><stop offset="0%" stop-color="#0E83FF"/><stop offset="100%" stop-color="#74DDFF"/></linearGradient><linearGradient id="zyro-logo-A" x1="100.02%" x2=".041%" y1="49.961%" y2="49.961%"><stop offset="0%" stop-color="#0E83FF"/><stop offset="100%" stop-color="#74DDFF"/></linearGradient><linearGradient id="zyro-logo-B" x1="100.008%" x2=".029%" y1="49.994%" y2="49.994%"><stop offset="0%" stop-color="#0E83FF"/><stop offset="100%" stop-color="#74DDFF"/></linearGradient><linearGradient id="zyro-logo-C" x1="100.008%" x2=".029%" y1="50.01%" y2="50.01%"><stop offset="0%" stop-color="#0E83FF"/><stop offset="100%" stop-color="#74DDFF"/></linearGradient></defs><g fill="none" fill-rule="evenodd"><path fill="url(#zyro-logo-a)" d="M501.087 87.542a2.5 2.5 0 005 0 2.5 2.5 0 00-5 0" transform="translate(-1)"/><path fill="url(#zyro-logo-b)" d="M613.915 247.916a2.5 2.5 0 105 0 2.5 2.5 0 10-5 0" transform="translate(-1)"/><path fill="url(#zyro-logo-c)" d="M566.463 566.697a2.5 2.5 0 105 0 2.5 2.5 0 00-5 0" transform="rotate(30 568.463 564.832)"/><path fill="url(#zyro-logo-c)" d="M762.092 146.563a2.5 2.5 0 105 0 2.5 2.5 0 00-5 0" transform="translate(-1)"/><path fill="url(#zyro-logo-d)" d="M685.143 2.97a2.5 2.5 0 005 0 2.5 2.5 0 10-5 0" transform="translate(-1)"/><path fill="url(#zyro-logo-e)" d="M719.734 45.503a2.5 2.5 0 005 0 2.5 2.5 0 10-5 0" transform="translate(-1)"/><path fill="url(#zyro-logo-f)" d="M1095.006 108.606a2.504 2.504 0 002.499 2.501 2.5 2.5 0 100-5 2.5 2.5 0 00-2.5 2.5" transform="translate(-1)"/><path fill="url(#zyro-logo-g)" d="M1141.741 66.033a2.5 2.5 0 005 0 2.5 2.5 0 10-5 0" transform="translate(-1)"/><path fill="url(#zyro-logo-h)" d="M1079.784 16.827a2.5 2.5 0 005 0 2.5 2.5 0 10-5 0" transform="translate(-1)"/><path fill="url(#zyro-logo-i)" d="M667 380.499a2.5 2.5 0 005 0 2.5 2.5 0 00-5 0" transform="translate(-1)"/><path fill="url(#zyro-logo-j)" d="M305.676 187.76a2.499 2.499 0 105 0 2.5 2.5 0 00-5 0" transform="translate(-1)"/><path fill="url(#zyro-logo-k)" d="M274.89 141.93a2.5 2.5 0 105 0 2.5 2.5 0 00-2.499-2.501 2.501 2.501 0 00-2.5 2.5" transform="translate(-1)"/><path fill="url(#zyro-logo-l)" d="M103.711 42.974a2.5 2.5 0 105 0 2.5 2.5 0 10-5 0" transform="translate(-1)"/><path fill="url(#zyro-logo-m)" d="M151.012 84.902a2.5 2.5 0 005 0 2.5 2.5 0 10-5 0" transform="translate(-1)"/><path fill="url(#zyro-logo-n)" d="M1388.421 309.667a2.499 2.499 0 002.5 2.501 2.5 2.5 0 000-5 2.5 2.5 0 00-2.5 2.5" transform="translate(-1)"/><path fill="url(#zyro-logo-o)" d="M1360.04 247.916a2.5 2.5 0 005 0 2.5 2.5 0 00-2.501-2.5 2.498 2.498 0 00-2.5 2.5" transform="translate(-1)"/><path fill="url(#zyro-logo-p)" d="M1434.264 534.554a2.499 2.499 0 105 0 2.5 2.5 0 00-2.5-2.5 2.5 2.5 0 00-2.5 2.5" transform="translate(-1)"/><path fill="url(#zyro-logo-q)" d="M1340.935 622.182a2.5 2.5 0 005 0 2.5 2.5 0 10-5 0" transform="translate(-1)"/><path fill="url(#zyro-logo-r)" d="M1365.937 664.66a2.5 2.5 0 005 0 2.5 2.5 0 00-2.5-2.499 2.497 2.497 0 00-2.5 2.498" transform="translate(-1)"/><path fill="url(#zyro-logo-s)" d="M1031.337 761.135a2.498 2.498 0 002.5 2.5 2.5 2.5 0 000-5 2.5 2.5 0 00-2.5 2.5" transform="translate(-1)"/><path fill="url(#zyro-logo-t)" d="M958.154 761.135a2.499 2.499 0 002.5 2.5 2.497 2.497 0 002.5-2.5 2.5 2.5 0 00-5 0" transform="translate(-1)"/><path fill="url(#zyro-logo-u)" d="M895.963 904.633a2.498 2.498 0 002.5 2.499 2.5 2.5 0 100-5 2.5 2.5 0 00-2.5 2.5m491.407 66.001a2.498 2.498 0 002.5 2.499 2.5 2.5 0 100-5 2.5 2.5 0 00-2.5 2.5" transform="translate(-1)"/><path fill="url(#zyro-logo-v)" d="M717.211 702.968a2.498 2.498 0 002.5 2.499c1.382 0 2.5-1.118 2.5-2.499a2.501 2.501 0 00-2.5-2.501 2.501 2.501 0 00-2.5 2.501" transform="translate(-1)"/><path fill="url(#zyro-logo-w)" d="M739.253 644.568c0 1.382 1.119 2.5 2.5 2.5 1.382 0 2.5-1.118 2.5-2.5s-1.118-2.5-2.5-2.5a2.499 2.499 0 00-2.5 2.5" transform="translate(-1)"/><path fill="url(#zyro-logo-x)" d="M415.501 870.517a2.5 2.5 0 105 0 2.5 2.5 0 10-5 0" transform="translate(-1)"/><path fill="url(#zyro-logo-y)" d="M208.743 743.824a2.499 2.499 0 105 0 2.5 2.5 0 00-5 0M165 866.499a2.499 2.499 0 105 0 2.5 2.5 0 00-5 0" transform="translate(-1)"/><path fill="url(#zyro-logo-y)" d="M1.45 301.991a2.499 2.499 0 105 0 2.5 2.5 0 00-5 0" transform="rotate(45 3.45 300.785)"/><path fill="url(#zyro-logo-z)" d="M134.17 510.048a2.5 2.5 0 005 0 2.502 2.502 0 00-2.498-2.501 2.501 2.501 0 00-2.501 2.501" transform="rotate(45 136.17 508.84)"/><path fill="url(#zyro-logo-A)" d="M821.89 866.88a2.504 2.504 0 002.502 2.5 2.5 2.5 0 002.499-2.5 2.5 2.5 0 00-5 0m491.407 66a2.504 2.504 0 002.501 2.5 2.5 2.5 0 002.5-2.5 2.5 2.5 0 00-5 0" transform="translate(-1)"/><path fill="url(#zyro-logo-B)" d="M474.62 224.275a2.5 2.5 0 005 0 2.501 2.501 0 00-5 0" transform="translate(-1)"/><path fill="url(#zyro-logo-C)" d="M547.651 312.03a2.5 2.5 0 105 0 2.5 2.5 0 00-2.499-2.502 2.501 2.501 0 00-2.5 2.501" transform="translate(-1)"/></g></svg>